<?xml version="1.0" encoding="utf-8"?>
<!-- Generator: Adobe Illustrator 21.1.0, SVG Export Plug-In . SVG Version: 6.00 Build 0)  -->
<svg version="1.1" id="Слой_1" xmlns="http://www.w3.org/2000/svg" xmlns:xlink="http://www.w3.org/1999/xlink" x="0px" y="0px"
	 viewBox="0 0 178 128" style="enable-background:new 0 0 178 128;" xml:space="preserve">
<style type="text/css">
	.st0{fill:#000105;}
	.st1{fill:#73AD59;}
	.st2{fill:#FFFFFF;}
</style>
<g id="Layer_3">
</g>
<g id="body_6_">
	<path class="st0" d="M81.5,127.5c9.1-21,9.2-45.1,1.8-66.8c-1.7-4.9-3.9-9.3-5.9-14c-4.3-10.2-6-21.7-2.9-32.6
		c1.4-4.7,3.6-9.6,6.9-13.1c-0.3-0.4-0.7-0.7-1-1.1c-5.7,8.1-14.2,11-23.2,9.1c-4.2-0.9-8.4-2.5-12.1-4.9c-0.2-0.1-0.5-0.2-0.7,0
		c-7.8,6.3-17,8-25.9,3.7c-3.7-1.8-7.4-4.4-10.2-7.7C8.1,0.6,7.8,1,7.5,1.3c9.5,10,10.1,27.2,6.1,40c-1.9,5.9-5,11.3-7.1,17.1
		c-3.2,8.5-5.2,17.6-6,26.8c-1.2,14.7,1.1,29.2,6.9,42.5c0.1,0.2,0.4,0.4,0.6,0.4c21.3-0.1,42.6-0.1,63.9-0.2c3,0,6.1,0,9.1,0
		c0.9,0,0.9-1.5,0-1.5c-21.5,0.1-43.1,0.1-64.6,0.2c-1.9,0-3.9,0-5.8,0c-0.5,0-2,0.3-2.5,0c0.1,0-0.7-2.6-0.8-2.8
		c-0.7-1.9-1.4-3.7-2-5.7c-1.1-3.6-2-7.2-2.6-10.9c-1-6.3-1.3-12.8-1-19.2c0.5-9.8,2.6-19.5,5.9-28.6c2-5.5,4.9-10.6,6.8-16.1
		c4.7-13.7,4.3-32.1-6-42.9c-0.6-0.7-1.6,0.4-1,1.1C14,8.9,24.4,13.6,33.8,11.5c1.8-0.4,3.5-1,5.1-1.8c0.9-0.4,1.8-1,2.7-1.5
		c0.5-0.3,1.1-0.7,1.6-1.1c0.2-0.2,1.5-1.6,1.3-1.5c0.6-0.1,2.2,1.3,2.7,1.6c4.5,2.3,9.5,3.9,14.5,4.1C69.6,11.6,76.6,8,81.4,1.1
		c0.5-0.8-0.3-1.8-1-1.1c-8.2,8.7-10.3,23.4-8,35.1c1.4,7.3,4.7,13.6,7.5,20.3c3.3,7.9,5.5,16.4,6.7,25c2.1,15.8,0.1,31.9-6.2,46.3
		C80,127.6,81.2,128.4,81.5,127.5"/>
	<path class="st0" d="M54.3,89.9c-1.4,0-2.9,0.5-4.2,1.1c-1.9,0.9-5.6,3-5.9,5.5c-0.3,2.3,0,5.5,0,7.7v23.2c0,1,1.4,1,1.4,0V107
		c0-3-0.2-6.7,0-9.7c0.2-3.3,5.8-5.9,8.7-5.9C55.2,91.4,55.2,89.9,54.3,89.9"/>
	<path class="st0" d="M45.5,96.6c-0.9-4.5-5.7-6.4-9.4-6.6c-0.9-0.1-0.9,1.5,0,1.5c3.1,0.2,7.3,1.7,8,5.5
		C44.3,97.9,45.7,97.5,45.5,96.6"/>
	<path class="st0" d="M45.5,69.8c0,0.5-0.4,0.9-0.9,0.9c-0.5,0-0.9-0.4-0.9-0.9c0-0.5,0.4-0.9,0.9-0.9
		C45.1,68.8,45.5,69.2,45.5,69.8"/>
</g>
<path class="st1" d="M79.2,62.5c0,0,10,25.5,1.7,47.3C72.6,131.6,86.4,87.4,79.2,62.5z"/>
<path class="st1" d="M10,63c0,0-10,25.5-1.7,47.3C16.7,132.1,2.9,87.9,10,63z"/>
<path class="st1" d="M29.2,78.1c0,0,15.2,5.8,29.1,0C72.2,72.4,48.2,89.9,29.2,78.1z"/>
<path class="st1" d="M68.7,29.8c0,0-1.5,8.8,4.7,18.8C79.6,58.6,63.2,41.9,68.7,29.8z"/>
<path class="st1" d="M20.4,29.8c0,0,1.5,8.8-4.7,18.8C9.5,58.6,26,41.9,20.4,29.8z"/>
<g id="body_1_">
	<path class="st2" d="M170.9,127.5c9.1-21,9.2-45.1,1.8-66.8c-1.7-4.9-3.9-9.3-5.9-14c-4.3-10.2-6-21.7-2.9-32.6
		c1.4-4.7,3.6-9.6,6.9-13.1c-0.3-0.4-0.7-0.7-1-1.1c-5.7,8.1-14.2,11-23.2,9.1c-4.2-0.9-8.4-2.5-12.1-4.9c-0.2-0.1-0.5-0.2-0.7,0
		c-7.8,6.3-17,8-25.9,3.7c-3.7-1.8-7.4-4.4-10.2-7.7c-0.3,0.4-0.7,0.7-1,1.1c9.5,10,10.1,27.2,6.1,40c-1.9,5.9-5,11.3-7.1,17.1
		c-3.2,8.5-5.2,17.6-6,26.8c-1.2,14.7,1.1,29.2,6.9,42.5c0.1,0.2,0.4,0.4,0.6,0.4c21.3-0.1,42.6-0.1,63.9-0.2c3,0,6.1,0,9.1,0
		c0.9,0,0.9-1.5,0-1.5c-21.5,0.1-43.1,0.1-64.6,0.2c-1.9,0-3.9,0-5.8,0c-0.5,0-2,0.3-2.5,0c0.1,0-0.7-2.6-0.8-2.8
		c-0.7-1.9-1.4-3.7-2-5.7c-1.1-3.6-2-7.2-2.6-10.9c-1-6.3-1.3-12.8-1-19.2c0.5-9.8,2.6-19.5,5.9-28.6c2-5.5,4.9-10.6,6.8-16.1
		c4.7-13.7,4.3-32.1-6-42.9c-0.6-0.7-1.6,0.4-1,1.1c6.5,7.6,16.9,12.2,26.4,10.2c1.8-0.4,3.5-1,5.1-1.8c0.9-0.4,1.8-1,2.7-1.5
		c0.5-0.3,1.1-0.7,1.6-1.1c0.2-0.2,1.5-1.6,1.3-1.5c0.6-0.1,2.2,1.3,2.7,1.6c4.5,2.3,9.5,3.9,14.5,4.1c7.9,0.4,14.9-3.3,19.7-10.2
		c0.5-0.8-0.3-1.8-1-1.1c-8.2,8.7-10.3,23.4-8,35.1c1.4,7.3,4.7,13.6,7.5,20.3c3.3,7.9,5.5,16.4,6.7,25c2.1,15.8,0.1,31.9-6.2,46.3
		C169.3,127.6,170.5,128.4,170.9,127.5"/>
	<path class="st2" d="M143.6,89.6c-1.4,0-2.9,0.5-4.2,1.1c-1.9,0.9-5.6,3-5.9,5.5c-0.3,2.3,0,5.5,0,7.7v23.2c0,1,1.4,1,1.4,0v-20.4
		c0-3-0.2-6.7,0-9.7c0.2-3.3,5.8-5.9,8.7-5.9C144.5,91.1,144.5,89.6,143.6,89.6"/>
	<path class="st2" d="M134.8,96.2c-0.9-4.5-5.7-6.4-9.4-6.6c-0.9-0.1-0.9,1.5,0,1.5c3.1,0.2,7.3,1.7,8,5.5
		C133.7,97.6,135,97.2,134.8,96.2"/>
	<path class="st2" d="M134.9,69.4c0,0.5-0.4,0.9-0.9,0.9c-0.5,0-0.9-0.4-0.9-0.9c0-0.5,0.4-0.9,0.9-0.9
		C134.5,68.5,134.9,68.9,134.9,69.4"/>
</g>
<path class="st2" d="M168.2,62.5c0,0,10,25.5,1.7,47.3C161.6,131.6,175.4,87.4,168.2,62.5z"/>
<path class="st2" d="M99,63c0,0-10,25.5-1.7,47.3C105.7,132.1,91.9,87.9,99,63z"/>
<path class="st2" d="M118.2,78.1c0,0,15.2,5.8,29.1,0C161.2,72.4,137.2,89.9,118.2,78.1z"/>
<path class="st2" d="M157.7,29.8c0,0-1.5,8.8,4.7,18.8C168.6,58.6,152.2,41.9,157.7,29.8z"/>
<path class="st2" d="M109.4,29.8c0,0,1.5,8.8-4.7,18.8C98.5,58.6,115,41.9,109.4,29.8z"/>
</svg>
