<?xml version="1.0" encoding="utf-8"?>
<!-- Generator: Adobe Illustrator 21.1.0, SVG Export Plug-In . SVG Version: 6.00 Build 0)  -->
<svg version="1.1" xmlns="http://www.w3.org/2000/svg" xmlns:xlink="http://www.w3.org/1999/xlink" x="0px" y="0px"
	 viewBox="0 0 178 128" style="enable-background:new 0 0 178 128;" xml:space="preserve">
<style type="text/css">
	.st0{fill:#000105;}
	.st1{fill:#73AD59;}
	.st2{fill:#FFFFFF;}
</style>
<g id="Слой_2">
</g>
<g id="Слой_1">
	<g id="Layer_3">
	</g>
	<g id="breast_4_">
		<path class="st0" d="M45.2,91.3c0,0.5-0.4,0.9-0.8,0.9c-0.5,0-0.8-0.4-0.8-0.9s0.4-0.9,0.8-0.9C44.9,90.4,45.2,90.8,45.2,91.3"/>
		<path class="st0" d="M8.1,26c5.4,6.4,7.8,16.6,8,25.4c0.2,10.1-2.5,19.8-6.5,28.6c-1.7,3.8-3.2,7.8-4.4,11.9
			c-3.1,10.4-4.8,21.3-5,32.4c0,0.4,0.2,0.7,0.5,0.8c8.5,2.8,18,3,26.8,2.7c9.7-0.4,19.3-2.6,29-3.5c7.2-0.7,14.5-0.8,21.7,0
			c3.2,0.3,6.5,0.7,9.7,1.6c0.4,0.1,0.9-0.2,0.9-0.8c-0.1-15.3-3.1-31.1-9.1-44.7c-6.4-14.3-9.6-30.9-3.3-46.1
			c1.2-2.9,2.7-6,4.7-8.3c0.6-0.7-0.3-1.9-1-1.2C74.7,30.9,72,40.5,71.5,49c-0.6,9.6,1.5,19.1,4.9,27.7c1.8,4.6,3.9,8.9,5.4,13.6
			c3.5,11.1,5.4,22.9,5.5,34.7c0.3-0.3,0.6-0.5,0.9-0.8c-9-2.6-18.9-2.5-28.1-2c-9.9,0.6-19.6,3-29.5,3.6
			c-7.3,0.5-14.6,0.3-21.8-0.8c-2-0.3-4-0.7-6-1.2c-0.4-0.1-1-0.1-1.3-0.4c-0.7-0.5-0.1-0.1,0.1-1.7c0.7-5.5,0.8-11.1,1.8-16.6
			c0.8-4.4,1.8-8.7,3.1-12.9c1.2-4,2.6-7.8,4.3-11.5c3.9-8.6,6.6-17.9,6.7-27.8c0.1-9.8-2.6-21.1-8.6-28.2c-0.6-0.8-1.7,0-1,0.8"/>
		<path class="st0" d="M68.1,14.4c0,0.5-0.4,0.9-0.8,0.9c-0.5,0-0.8-0.4-0.8-0.9s0.4-0.9,0.8-0.9C67.8,13.6,68.1,14,68.1,14.4"/>
		<path class="st0" d="M21.8,14.4c0,0.5-0.4,0.9-0.8,0.9c-0.5,0-0.8-0.4-0.8-0.9s0.4-0.9,0.8-0.9C21.4,13.6,21.8,14,21.8,14.4"/>
		<path class="st0" d="M2,1c-1,9.2,1,20.5,7.2,26.6c5.3,5.2,13,6.1,19.4,4.2C34.4,30.1,39.1,25.3,42,19c1.7-3.7,2.9-7.9,3.3-12h-1.4
			C44.7,17.1,50,27.1,58,30.8c6.2,2.9,14.3,2.9,19.9-1.7c4.4-3.6,6.9-9.5,8.1-15.6c0.8-4,1.2-8.4,0.9-12.5c-0.1-1.1-1.5-1.1-1.4,0
			c0.5,8.1-1,17.9-5.8,24c-4.7,6-12.2,7.1-18.6,5.2c-5.7-1.7-10.2-6.2-12.9-12.4c-1.4-3.3-2.6-7.1-2.9-10.8c-0.1-1.1-1.3-1.1-1.4,0
			C43,16.2,38,25.8,30.6,29.3c-6.2,2.9-14.5,2.5-20-2.4c-4.1-3.6-6.2-9.5-7-15.4C3.2,8,3,4.5,3.4,1C3.5-0.1,2.1-0.1,2,1"/>
	</g>
	<path class="st1" d="M5.2,12.4c0,0,4.7,12.7,17.1,13c12.4,0.3,17.9-9.1,17.9-9.1s-5.2,14-18.7,13S5.2,12.4,5.2,12.4z"/>
	<path class="st1" d="M83.7,12c0,0-4.7,12.7-17.1,13s-17.9-9.1-17.9-9.1S53.9,30,67.4,29S83.7,12,83.7,12z"/>
	<g id="breast_1_">
		<path class="st2" d="M134.6,91.3c0,0.5-0.4,0.9-0.8,0.9c-0.5,0-0.8-0.4-0.8-0.9s0.4-0.9,0.8-0.9C134.2,90.4,134.6,90.8,134.6,91.3
			"/>
		<path class="st2" d="M97.2,26.3c5.4,6.4,7.8,16.6,8,25.4c0.2,10.1-2.5,19.8-6.5,28.6c-1.7,3.8-3.2,7.8-4.4,11.9
			c-3.1,10.4-4.8,21.3-5,32.4c0,0.4,0.2,0.7,0.5,0.8c8.5,2.8,18,3,26.8,2.7c9.7-0.4,19.3-2.6,29-3.5c7.2-0.7,14.5-0.8,21.7,0
			c3.2,0.3,6.5,0.7,9.7,1.6c0.4,0.1,0.9-0.2,0.9-0.8c-0.1-15.3-3.1-31.1-9.1-44.7c-6.4-14.3-9.6-30.9-3.3-46.1
			c1.2-2.9,2.7-6,4.7-8.3c0.6-0.7-0.3-1.9-1-1.2c-5.2,6.1-7.9,15.7-8.5,24.2c-0.6,9.6,1.5,19.1,4.9,27.7c1.8,4.6,3.9,8.9,5.4,13.6
			c3.5,11.1,5.4,22.9,5.5,34.7c0.3-0.3,0.6-0.5,0.9-0.8c-9-2.6-18.9-2.5-28.1-2c-9.9,0.6-19.6,3-29.5,3.6
			c-7.3,0.5-14.6,0.3-21.8-0.8c-2-0.3-4-0.7-6-1.2c-0.4-0.1-1-0.1-1.3-0.4c-0.7-0.5-0.1-0.1,0.1-1.7c0.7-5.5,0.8-11.1,1.8-16.6
			c0.8-4.4,1.8-8.7,3.1-12.9c1.2-4,2.6-7.8,4.3-11.5c3.9-8.6,6.6-17.9,6.7-27.8c0.1-9.8-2.6-21.1-8.6-28.2c-0.6-0.8-1.7,0-1,0.8"/>
		<path class="st2" d="M157.5,14.4c0,0.5-0.4,0.9-0.8,0.9c-0.5,0-0.8-0.4-0.8-0.9s0.4-0.9,0.8-0.9C157.1,13.6,157.5,14,157.5,14.4"
			/>
		<path class="st2" d="M111.1,14.4c0,0.5-0.4,0.9-0.8,0.9c-0.5,0-0.8-0.4-0.8-0.9s0.4-0.9,0.8-0.9C110.7,13.6,111.1,14,111.1,14.4"
			/>
		<path class="st2" d="M91.3,1c-1,9.2,1,20.5,7.2,26.6c5.3,5.2,13,6.1,19.4,4.2c5.8-1.8,10.5-6.5,13.4-12.8c1.7-3.7,2.9-7.9,3.3-12
			h-1.4c0.8,10.1,6.1,20.1,14.1,23.9c6.2,2.9,14.3,2.9,19.9-1.7c4.4-3.6,6.9-9.5,8.1-15.6c0.8-4,1.2-8.4,0.9-12.5
			c-0.1-1.1-1.5-1.1-1.4,0c0.5,8.1-1,17.9-5.8,24c-4.7,6-12.2,7.1-18.6,5.2c-5.7-1.7-10.2-6.2-12.9-12.4c-1.4-3.3-2.6-7.1-2.9-10.8
			c-0.1-1.1-1.3-1.1-1.4,0c-0.9,9.2-5.8,18.9-13.3,22.3c-6.2,2.9-14.5,2.5-20-2.4c-4.1-3.6-6.2-9.5-7-15.4C92.5,8,92.4,4.5,92.7,1
			C92.9-0.1,91.4-0.1,91.3,1"/>
	</g>
	<path class="st2" d="M94.5,12.4c0,0,4.7,12.7,17.1,13c12.4,0.3,17.9-9.1,17.9-9.1s-5.2,14.1-18.7,13.1
		C97.3,28.3,94.5,12.4,94.5,12.4z"/>
	<path class="st2" d="M173,12c0,0-4.7,12.7-17.1,13c-12.4,0.3-17.9-9.1-17.9-9.1S143.2,30,156.7,29S173,12,173,12z"/>
</g>
</svg>
