<?xml version="1.0" encoding="utf-8"?>
<!-- Generator: Adobe Illustrator 21.1.0, SVG Export Plug-In . SVG Version: 6.00 Build 0)  -->
<svg version="1.1" id="Слой_1" xmlns="http://www.w3.org/2000/svg" xmlns:xlink="http://www.w3.org/1999/xlink" x="0px" y="0px"
	 viewBox="0 0 178 128" style="enable-background:new 0 0 178 128;" xml:space="preserve">
<style type="text/css">
	.st0{fill:#000105;}
	.st1{fill:#73AD59;}
	.st2{fill:#FFFFFF;}
</style>
<g id="Layer_3">
</g>
<g id="buttocks_1_">
	<path class="st0" d="M80.1,0.2c-4.7,5.1-7.5,12.9-8.4,20c-1.6,12,1.9,23.9,7.6,34c5.3,9.4,8.3,20.6,8.4,31.7
		c0.1,8.9-1.9,17.8-5.4,25.7c-2.1,4.7-4.8,10.5-8.3,14c-0.5,0.5,0,0.3-0.5,0.5c-0.3,0.1-0.8,0.2-1.1,0.2H21h-3.6
		c-1.4,0-1.1-0.1-2.1-1.6c-5.7-8.2-10.5-16.6-12.6-26.9C0,84.7,2.2,70.8,7.7,59c1.1-2.4,2.4-4.5,3.7-6.8c3.4-5.9,5.8-14.4,6.4-21.8
		c0.9-10.1-1.6-20.7-7.5-28.5c-0.4-0.5-0.7-1-1.1-1.4L8.6,1.7C16,3.5,23.7,4.4,31.2,5c16.6,1.3,33.3,0.5,49.6-3.5
		c0.9-0.2,0.5-1.7-0.4-1.5C64.3,3.9,47.7,4.7,31.2,3.4C23.8,2.8,16.2,2,8.9,0.2C8.3,0.1,7.7,1,8.3,1.5c5.4,5.8,8.1,15.2,8.4,23.4
		c0.3,8.9-2,18.7-6.2,26.3c-1.1,2-2.4,3.9-3.4,6c-5.2,10.6-7.8,23-6.5,35.1C1.3,100.9,4,109,8,116.3c1.1,2,2.3,4,3.6,5.9
		c1,1.5,2.7,4.8,4.2,5.6c0.4,0.2,0.9,0.1,1.4,0.1c17.2,0.2,34.5,0,51.7,0c1.3,0,3.6,0.1,4.9-0.4c1.2-0.5,2.4-2.5,3.2-3.6
		c1.6-2.3,3.1-4.8,4.4-7.3c2-3.9,3.7-8,5-12.2c4-13.4,3.2-28-1.6-41C83.6,59.6,82,56,80,52.7c-2.8-4.8-4.9-10.3-6.1-15.9
		C71.3,25.1,73,12.1,80,2.7c0.4-0.5,0.7-1,1.1-1.4C81.7,0.6,80.8-0.5,80.1,0.2"/>
	<path class="st0" d="M45.5,126.7L45.4,94H44c0.5,5.8,3.2,12.2,7.9,16c4,3.2,9.2,3.9,14.2,3.9c4.7,0,9.4-0.8,13.2-3.5
		c4.8-3.4,7.2-9,8.8-14.4c0.2-0.8-1.1-1.2-1.3-0.3c-1.7,5.7-4.4,11.7-10,14.7c-5.1,2.8-12.4,2.8-18,1.5C50.6,110,46,101.6,45.4,94
		c-0.1-0.8-1.4-0.9-1.4,0l0,32.7c0,0.8,1.5,0.6,1.5-0.2"/>
	<path class="st0" d="M43.9,94c-0.7,7.6-5.2,16.1-13.5,18c-5.6,1.3-12.9,1.2-18-1.5c-5.7-3-8.3-9.1-10-14.8
		c-0.2-0.8-1.6-0.5-1.3,0.3c1.5,4.9,3.5,9.9,7.5,13.4c3.3,2.9,7.6,4.2,12,4.5c5.1,0.3,10.9,0,15.3-2.8c3.6-2.3,6-5.8,7.5-9.6
		c1-2.4,1.7-5,1.9-7.5C45.3,93.1,44,93.1,43.9,94"/>
</g>
<path class="st1" d="M47.9,96.3c0,0,6.5,9.7,18.8,9.2c12.3-0.4,18.8-12.4,18.8-12.4s-3.7,17.2-18.2,17.4
	C52.8,110.7,47.9,96.3,47.9,96.3z"/>
<path class="st1" d="M41.3,96.5c0,0-6.5,9.7-18.8,9.2C10.2,105.3,3.7,93.3,3.7,93.3s3.7,17.2,18.2,17.4
	C36.4,110.8,41.3,96.5,41.3,96.5z"/>
<g id="buttocks_2_">
	<path class="st2" d="M169,0.4c-4.7,5.1-7.5,12.9-8.4,20c-1.6,12,1.9,23.9,7.6,34c5.3,9.4,8.3,20.6,8.4,31.7
		c0.1,8.9-1.9,17.8-5.4,25.7c-2.1,4.7-4.8,10.5-8.3,14c-0.5,0.5,0,0.3-0.5,0.5c-0.3,0.1-0.8,0.2-1.1,0.2h-51.4h-3.6
		c-1.4,0-1.1-0.1-2.1-1.6c-5.7-8.2-10.5-16.6-12.6-26.9c-2.7-13.2-0.5-27.1,5-38.9c1.1-2.4,2.4-4.5,3.7-6.8
		c3.4-5.9,5.8-14.4,6.4-21.8C107.5,20.4,105,9.8,99.2,2c-0.4-0.5-0.7-1-1.1-1.4l-0.7,1.3c7.4,1.8,15.1,2.6,22.7,3.2
		c16.6,1.3,33.3,0.5,49.6-3.5c0.9-0.2,0.5-1.7-0.4-1.5c-16.1,3.9-32.8,4.7-49.2,3.4c-7.5-0.6-15-1.4-22.3-3.2
		c-0.6-0.2-1.2,0.7-0.7,1.3c5.4,5.8,8.1,15.2,8.4,23.4c0.3,8.9-2,18.7-6.2,26.3c-1.1,2-2.4,3.9-3.4,6c-5.2,10.6-7.8,23-6.5,35.1
		c0.9,8.5,3.6,16.6,7.6,23.9c1.1,2,2.3,4,3.6,5.9c1,1.5,2.7,4.8,4.2,5.6c0.4,0.2,0.9,0.1,1.4,0.1c17.2,0.2,34.5,0,51.7,0
		c1.3,0,3.6,0.1,4.9-0.4c1.2-0.5,2.4-2.5,3.2-3.6c1.6-2.3,3.1-4.8,4.4-7.3c2-3.9,3.7-8,5-12.2c4-13.4,3.2-28-1.6-41
		c-1.3-3.7-2.9-7.2-4.9-10.6c-2.8-4.8-4.9-10.3-6.1-15.9c-2.6-11.6-0.9-24.7,6.1-34.1c0.4-0.5,0.7-1,1.1-1.4
		C170.6,0.8,169.6-0.3,169,0.4"/>
	<path class="st2" d="M134.3,126.8l-0.1-32.7h-1.4c0.5,5.8,3.2,12.2,7.9,16c4,3.2,9.2,3.9,14.2,3.9c4.7,0,9.4-0.8,13.2-3.5
		c4.8-3.4,7.2-9,8.8-14.4c0.2-0.8-1.1-1.2-1.3-0.3c-1.7,5.7-4.4,11.7-10,14.7c-5.1,2.8-12.4,2.8-18,1.5
		c-8.3-1.9-12.8-10.4-13.5-17.9c-0.1-0.8-1.4-0.9-1.4,0l0,32.7c0,0.8,1.5,0.6,1.5-0.2"/>
	<path class="st2" d="M132.7,94.1c-0.7,7.6-5.2,16.1-13.5,18c-5.6,1.3-12.9,1.2-18-1.5c-5.7-3-8.3-9.1-10-14.8
		c-0.2-0.8-1.6-0.5-1.3,0.3c1.5,4.9,3.5,9.9,7.5,13.4c3.3,2.9,7.6,4.2,12,4.5c5.1,0.3,10.9,0,15.3-2.8c3.6-2.3,6-5.8,7.5-9.6
		c1-2.4,1.7-5,1.9-7.5C134.2,93.3,132.8,93.3,132.7,94.1"/>
</g>
<path class="st2" d="M136.9,96.3c0,0,6.5,9.7,18.8,9.2c12.3-0.4,18.8-12.4,18.8-12.4s-3.7,17.2-18.2,17.4
	C141.8,110.7,136.9,96.3,136.9,96.3z"/>
<path class="st2" d="M130.3,96.5c0,0-6.5,9.7-18.8,9.2c-12.3-0.4-18.8-12.4-18.8-12.4s3.7,17.2,18.2,17.4
	C125.4,110.8,130.3,96.5,130.3,96.5z"/>
</svg>
