<?xml version="1.0" encoding="utf-8"?>
<!-- Generator: Adobe Illustrator 21.1.0, SVG Export Plug-In . SVG Version: 6.00 Build 0)  -->
<svg version="1.1" id="Слой_1" xmlns="http://www.w3.org/2000/svg" xmlns:xlink="http://www.w3.org/1999/xlink" x="0px" y="0px"
	 viewBox="0 0 212 128" style="enable-background:new 0 0 212 128;" xml:space="preserve">
<style type="text/css">
	.st0{fill:#000105;}
	.st1{fill:#73AD59;}
	.st2{fill:#FFFFFF;}
</style>
<g id="hair_4_">
	<path class="st0" d="M34.9,115.7c-4.1,2.4-8.6,4.5-13.2,5.6c-2.5,0.6-5.6,1.2-7.7-0.7c-1.9-1.8-3.1-4.6-4-7
		c-1.7-4.6-2.9-9.4-3.8-14.2C5,92.6,3.7,85.9,2.9,79C1.4,66,1,52.4,4.2,39.5c1.7-6.8,4.5-13.7,9.3-19c1.7-1.9,4.5-4.4,6.5-5.2
		c0.6-0.2,0.7-1.2,0-1.4c-0.5-0.1-2.8-0.9-2.9-0.8c0-0.1,0.5-0.3,0.6-0.4c0.9-0.6,1.9-1.1,2.8-1.6c3.6-1.9,7.3-3.5,11-4.9
		c10.9-4,23-6.2,34.4-3.7C82.2,6.1,93,19,98.9,33.9c3.5,8.6,5.4,16.9,5.3,26.2c-0.1,10.5-1.2,21-2.7,31.3
		c-0.8,5.2-1.7,10.4-2.9,15.6c-1.1,4.5-2.1,10.1-6.8,12.1c-6,2.5-13.9-1.2-18.9-4.5c-0.8-0.5-1.5,0.7-0.7,1.2c4.8,3.2,11.2,6,17,5.4
		c9.4-0.9,10.6-12,12-19.4c2.2-11.1,3.5-22.5,4.2-33.8c0.3-4.9,0.4-9.8,0.1-14.7c-0.3-4.5-1.5-8.8-2.8-13.1
		C97.4,23.4,87.1,7.2,69.5,2C57.2-1.7,43.8,0.4,31.9,4.7c-4.5,1.6-8.9,3.6-13.1,5.8c-0.7,0.4-1.8,0.8-2.4,1.4
		c-2.1,2,1.8,3.1,3.2,3.5V14C10.9,17.4,5.9,28.6,3.5,36.8c-3.7,12.9-3.6,26.8-2.3,40C2,84.4,3.5,91.9,4.8,99.4
		c0.9,5.1,2.1,10.3,4,15.2c2,5.1,4.6,9.5,10.7,8.7c5.6-0.7,11.2-3.4,16.1-6.3C36.4,116.5,35.7,115.3,34.9,115.7"/>
	<path class="st0" d="M18.1,54.3c10.9-4.1,22.2-9.5,31-17.2c-0.4-0.3-0.7-0.6-1.1-0.9c-1.3,2.9-2.8,6.2-5.2,8.4
		c-0.5,0.5,0,1.4,0.7,1.2c9.7-2.9,20.7-7.7,26.9-16c0.6-0.7-0.7-1.5-1.2-0.7C63.2,37,52.3,41.6,43,44.4l0.7,1.2
		c2.5-2.2,4.1-5.6,5.5-8.7c0.3-0.7-0.5-1.4-1.1-0.9c-8.6,7.6-19.7,12.8-30.4,16.8C16.8,53.2,17.2,54.6,18.1,54.3"/>
	<path class="st0" d="M23,51c-5.6,15-4.8,32.8,0.8,47.7c3.3,8.9,9,17.4,16.3,23.5c3.5,2.9,7.8,5.5,12.3,5.7
		c10.4,0.6,19.1-9.5,24.3-17.2c5.1-7.5,8.1-16.1,9.5-25c0.8-5.2,1.5-10.5,1.3-15.7C87,55.3,81.3,38.7,67.5,31.7
		c-0.8-0.4-1.5,0.8-0.7,1.2c12.2,6.2,17.7,20,19.1,33c0.5,4.7,0.2,9.3-0.3,14c-0.9,7.6-2.3,15-5.6,22c-3.8,8.2-9.7,16.4-17.4,21.4
		c-2.8,1.8-5.9,3.1-9.2,3.1c-3.1,0-6-1.2-8.7-2.8c-7.7-4.7-13.7-12.8-17.6-20.8C23.5,95.3,22,87.2,21,78.9c-1.1-9.4,0-18.7,3.3-27.5
		C24.7,50.5,23.3,50.1,23,51"/>
</g>
<path class="st1" d="M16,118.1c0,0-17.2-43-10.9-69C11.4,23.2,32,13.2,32.6,13.2s-5.1-1.7-9.9,0c0,0,42.3-19.3,62.3,4.4
	C105,41.3,100.5,48,100.5,48s-12.4-25.6-28-29.2S30.6,28.8,30.6,28.8s1.8-4.5,4.8-7.8c0,0-16.6,5.2-23.1,22.3S11.2,69,11.2,69
	S7.3,66.4,6.6,62c0,0-0.3,25.4,7.9,39.1c0,0-2.1-1.5-3.3-3.2C11.2,97.9,14.5,112.9,16,118.1z"/>
<g id="hair_1_">
	<path class="st2" d="M141.2,115.7c-4.1,2.4-8.6,4.5-13.2,5.6c-2.5,0.6-5.6,1.2-7.7-0.7c-1.9-1.8-3.1-4.6-4-7
		c-1.7-4.6-2.9-9.4-3.8-14.2c-1.2-6.8-2.6-13.5-3.4-20.4c-1.5-13.1-1.9-26.7,1.3-39.5c1.7-6.8,4.5-13.7,9.3-19
		c1.7-1.9,4.5-4.4,6.5-5.2c0.6-0.2,0.7-1.2,0-1.4c-0.5-0.1-2.8-0.9-2.9-0.8c0-0.1,0.5-0.3,0.6-0.4c0.9-0.6,1.9-1.1,2.8-1.6
		c3.6-1.9,7.3-3.5,11-4.9c10.9-4,23-6.2,34.4-3.7c16.2,3.5,26.9,16.5,32.9,31.3c3.5,8.6,5.4,16.9,5.3,26.2
		c-0.1,10.5-1.2,21-2.7,31.3c-0.8,5.2-1.7,10.4-2.9,15.6c-1.1,4.5-2.1,10.1-6.8,12.1c-6,2.5-13.9-1.2-18.9-4.5
		c-0.8-0.5-1.5,0.7-0.7,1.2c4.8,3.2,11.2,6,17,5.4c9.4-0.9,10.6-12,12-19.4c2.2-11.1,3.5-22.5,4.2-33.8c0.3-4.9,0.4-9.8,0.1-14.7
		c-0.3-4.5-1.5-8.8-2.8-13.1C203.7,23.4,193.4,7.2,175.8,2c-12.3-3.7-25.7-1.6-37.6,2.7c-4.5,1.6-8.9,3.6-13.1,5.8
		c-0.7,0.4-1.8,0.8-2.4,1.4c-2.1,2,1.8,3.1,3.2,3.5V14c-8.7,3.4-13.8,14.6-16.2,22.8c-3.7,12.9-3.6,26.8-2.3,40
		c0.8,7.6,2.2,15.1,3.6,22.6c0.9,5.1,2.1,10.3,4,15.2c2,5.1,4.6,9.5,10.7,8.7c5.6-0.7,11.2-3.4,16.1-6.3
		C142.7,116.5,142,115.3,141.2,115.7"/>
	<path class="st2" d="M124.4,54.3c10.9-4.1,22.2-9.5,31-17.2c-0.4-0.3-0.7-0.6-1.1-0.9c-1.3,2.9-2.8,6.2-5.2,8.4
		c-0.5,0.5,0,1.4,0.7,1.2c9.7-2.9,20.7-7.7,26.9-16c0.6-0.7-0.7-1.5-1.2-0.7c-5.9,7.9-16.8,12.6-26.1,15.4l0.7,1.2
		c2.5-2.2,4.1-5.6,5.5-8.7c0.3-0.7-0.5-1.4-1.1-0.9c-8.6,7.6-19.7,12.8-30.4,16.8C123.2,53.2,123.5,54.6,124.4,54.3"/>
	<path class="st2" d="M129.3,51c-5.6,15-4.8,32.8,0.8,47.7c3.3,8.9,9,17.4,16.3,23.5c3.5,2.9,7.8,5.5,12.3,5.7
		c10.4,0.6,19.1-9.5,24.3-17.2c5.1-7.5,8.1-16.1,9.5-25c0.8-5.2,1.5-10.5,1.3-15.7c-0.6-14.7-6.3-31.2-20.1-38.2
		c-0.8-0.4-1.5,0.8-0.7,1.2c12.2,6.2,17.7,20,19.1,33c0.5,4.7,0.2,9.3-0.3,14c-0.9,7.6-2.3,15-5.6,22c-3.8,8.2-9.7,16.4-17.4,21.4
		c-2.8,1.8-5.9,3.1-9.2,3.1c-3.1,0-6-1.2-8.7-2.8c-7.7-4.7-13.7-12.8-17.6-20.8c-3.7-7.6-5.1-15.6-6.1-23.9
		c-1.1-9.4,0-18.7,3.3-27.5C131,50.5,129.6,50.1,129.3,51"/>
</g>
<path class="st2" d="M122.2,118.2c0,0-17.2-43-10.9-69c6.3-25.9,26.9-35.9,27.5-35.9s-5.1-1.7-9.9,0c0,0,42.3-19.3,62.3,4.4
	c20,23.7,15.4,30.4,15.4,30.4s-12.4-25.6-28-29.2S136.8,29,136.8,29s1.8-4.5,4.8-7.8c0,0-16.6,5.2-23.1,22.3
	c-6.5,17.2-1.2,25.6-1.2,25.6s-3.8-2.7-4.6-7.1c0,0-0.3,25.4,7.9,39.1c0,0-2.1-1.5-3.3-3.2C117.4,98,120.7,113,122.2,118.2z"/>
</svg>
