<?xml version="1.0" encoding="utf-8"?>
<!-- Generator: Adobe Illustrator 19.0.1, SVG Export Plug-In . SVG Version: 6.00 Build 0)  -->
<svg version="1.1" xmlns="http://www.w3.org/2000/svg" xmlns:xlink="http://www.w3.org/1999/xlink" x="0px" y="0px"
	 viewBox="0 0 178 128" style="enable-background:new 0 0 178 128;" xml:space="preserve">
<style type="text/css">
	.st0{fill:#FFFFFF;}
	.st1{fill:#4BAE52;}
</style>
<g id="Layer_3">
</g>
<g id="Layer_2">
	<g>
		<g id="face_4_">
			<path class="st0" d="M97.8,50.5c6.8-6.7,17.9-0.9,23.7,3.9c0.7,0.6,1.8-0.4,1-1.1c-6.5-5.3-18.4-11.2-25.8-3.9
				C96.1,50.1,97.1,51.2,97.8,50.5"/>
			<path class="st0" d="M102.8,60.2c4.4,6.8,13.4,5.8,19.7,2.6c0.9-0.4,0.1-1.7-0.7-1.3c-5.5,2.7-13.8,4-17.7-2.1
				C103.5,58.7,102.2,59.4,102.8,60.2"/>
			<path class="st0" d="M171.4,49.4c-7.5-7.4-19.3-1.5-25.8,3.9c-0.7,0.6,0.3,1.7,1,1.1c5.9-4.8,16.9-10.6,23.7-3.9
				C171,51.2,172.1,50.1,171.4,49.4"/>
			<path class="st0" d="M164.1,59.5c-3.9,6.1-12.2,4.8-17.7,2.1c-0.8-0.4-1.6,0.9-0.7,1.3c6.2,3.1,15.3,4.2,19.7-2.6
				C165.9,59.4,164.6,58.7,164.1,59.5"/>
			<path class="st0" d="M126.2,87.3c2.5-2.8,5.1,1.6,7.7,1.9c3.3,0.4,5-4.4,8.4-1.6c0.7,0.6,1.8-0.5,1-1.1c-1.1-0.9-2.2-1.6-3.6-1.4
				c-2.5,0.3-4,3.5-6.7,2.2c-1.8-0.8-2.8-2.7-5-2.5c-1.1,0.1-2.1,0.6-2.8,1.4C124.5,87,125.5,88.1,126.2,87.3"/>
			<path class="st0" d="M117.9,99.8c8.5,9.7,23.7,9.4,32.4,0.1c0.3-0.4,0.3-0.9-0.1-1.2c-3.9-2.4-12.2-7.3-16.5-3.4h1
				c-4.1-4.7-13.2,1-16.7,3.3c-0.8,0.5-0.1,1.8,0.7,1.3c2.9-1.9,11.4-7.5,14.9-3.5c0.3,0.3,0.8,0.3,1,0c3.5-3.2,11.4,1.6,14.7,3.6
				c-0.1-0.4-0.1-0.8-0.1-1.2c-8.1,8.7-22.4,9-30.3-0.1C118.3,98,117.3,99.1,117.9,99.8"/>
			<path class="st0" d="M118.2,100c1.9,0.7,3.9,1.1,5.9,1.4c3.4,0.6,6.6,0.2,10,0.1c5.3,0,10.1,0.6,15.3-1.2
				c0.9-0.3,0.5-1.7-0.4-1.4c-4.9,1.7-9.6,1.2-14.7,1.1c-3.7-0.1-7,0.4-10.7-0.3c-1.7-0.3-3.4-0.7-5-1.3
				C117.7,98.2,117.3,99.7,118.2,100"/>
			<path class="st0" d="M134.9,0.7L134.9,0.7c0-0.4-0.3-0.8-0.7-0.7c0,0-0.1,0-0.1,0c-0.4,0-0.7,0.3-0.7,0.7v0
				c0.2-0.2,0.5-0.5,0.7-0.7c-11.6,0.1-22.4,4.5-30.1,13.5c-6.7,7.9-10.5,18.1-12.4,28.2c-1.6,8.6-1.4,16.9-0.4,25.6
				c1.8,15.8,6.6,30.5,16.4,43.1c6.1,7.8,15.2,17.2,25.9,17.5c6.7,0.2,12.9-3.4,17.9-7.6c13.2-11.1,21.6-27.6,24.6-44.5
				c1.6-9,2.7-18.3,1.7-27.4C175.6,28,165.4,5.8,143.7,1c-3.1-0.7-6.3-1-9.5-1c-0.9,0-1,1.5,0,1.5c11.5,0.1,22,4.5,29.4,13.5
				c6.4,7.8,9.9,17.6,11.7,27.4c1.4,7.9,1.4,15.6,0.5,23.5c-1.7,15.3-5.9,29.7-15.2,42.3c-5.9,8-15.1,18.1-25.8,18.4
				c-6.8,0.2-13.1-3.8-18-8.3c-12.5-11.2-20.2-27-23.1-43.5c-1.4-8.4-2.4-17-1.6-25.6c1.8-19.9,11.5-41.9,32.6-46.7
				c3.1-0.7,6.2-1,9.4-1C134.5,1.5,134.8,1.2,134.9,0.7L134.9,0.7c-0.3,0.2-0.6,0.5-0.8,0.7c0,0,0.1,0,0.1,0
				c-0.2-0.2-0.5-0.5-0.7-0.7v0C133.5,1.7,134.9,1.7,134.9,0.7"/>
		</g>
		<g>
			<g id="face_1_">
				<path d="M7.5,50.5c6.9-6.7,18.1-0.9,24.1,3.9c0.7,0.6,1.8-0.4,1.1-1.1C26,48,14,42.1,6.4,49.4C5.7,50.1,6.8,51.2,7.5,50.5"/>
				<path d="M12.5,60.3c4.5,6.8,13.7,5.8,20,2.6c0.9-0.4,0.1-1.7-0.8-1.3c-5.6,2.7-14,4-18-2.1C13.3,58.7,12,59.5,12.5,60.3"/>
				<path d="M82.2,49.4C74.6,42.1,62.6,48,56,53.3c-0.7,0.6,0.3,1.7,1.1,1.1c6-4.8,17.2-10.6,24.1-3.9
					C81.8,51.2,82.9,50.1,82.2,49.4"/>
				<path d="M74.8,59.5c-4,6.1-12.4,4.8-18,2.1c-0.9-0.4-1.6,0.9-0.8,1.3c6.3,3.1,15.5,4.2,20-2.6C76.7,59.5,75.4,58.7,74.8,59.5"/>
				<path d="M36.3,87.3c2.5-2.8,5.1,1.6,7.8,1.9c3.3,0.4,5.1-4.3,8.5-1.6c0.7,0.6,1.8-0.5,1.1-1.1c-1.1-0.9-2.2-1.6-3.7-1.4
					c-2.6,0.3-4,3.5-6.8,2.2c-1.8-0.8-2.9-2.7-5.1-2.5c-1.1,0.1-2.1,0.6-2.9,1.4C34.6,87,35.7,88.1,36.3,87.3"/>
				<path d="M27.9,99.8c8.6,9.7,24.1,9.4,32.9,0.1c0.3-0.4,0.3-0.9-0.2-1.2c-4-2.4-12.4-7.3-16.7-3.4H45c-4.2-4.7-13.4,1-16.9,3.3
					c-0.8,0.5-0.1,1.8,0.8,1.3c2.9-1.9,11.6-7.5,15.1-3.5c0.3,0.3,0.8,0.3,1.1,0c3.6-3.2,11.6,1.6,14.9,3.6
					c-0.1-0.4-0.1-0.8-0.2-1.2c-8.3,8.7-22.7,9-30.8-0.1C28.3,98,27.3,99.1,27.9,99.8"/>
				<path d="M28.2,100c1.9,0.7,3.9,1.1,6,1.4c3.5,0.6,6.7,0.2,10.1,0.1c5.4,0,10.3,0.6,15.5-1.2c0.9-0.3,0.5-1.7-0.4-1.4
					c-5,1.7-9.8,1.2-14.9,1.1c-3.7-0.1-7.1,0.4-10.8-0.3c-1.7-0.3-3.4-0.7-5.1-1.3C27.7,98.2,27.3,99.7,28.2,100"/>
				<path d="M45.2,0.7L45.2,0.7c0-0.4-0.3-0.8-0.7-0.7c0,0-0.1,0-0.1,0c-0.4,0-0.7,0.3-0.7,0.7v0c0.2-0.2,0.5-0.5,0.7-0.7
					C32.6,0.1,21.6,4.5,13.8,13.5C7,21.4,3.1,31.6,1.2,41.7c-1.6,8.6-1.4,16.9-0.4,25.6c1.8,15.8,6.7,30.5,16.7,43.1
					c6.2,7.8,15.5,17.2,26.3,17.5c6.8,0.2,13.1-3.4,18.2-7.6c13.4-11.1,21.9-27.6,25-44.5c1.6-9,2.7-18.3,1.8-27.4
					C86.5,28,76.1,5.7,54.1,1c-3.2-0.7-6.4-1-9.6-1c-1,0-1,1.5,0,1.5C56.1,1.6,66.8,6,74.3,15c6.5,7.8,10.1,17.6,11.9,27.4
					c1.5,7.9,1.4,15.6,0.5,23.5c-1.7,15.3-6,29.7-15.4,42.3c-6,8-15.3,18.1-26.3,18.3c-7,0.2-13.3-3.8-18.3-8.3
					C14,107,6.2,91.2,3.3,74.8c-1.5-8.4-2.5-17-1.7-25.6C3.5,29.3,13.4,7.3,34.8,2.5c3.1-0.7,6.3-1,9.5-1
					C44.8,1.5,45.1,1.1,45.2,0.7L45.2,0.7c-0.3,0.2-0.6,0.5-0.8,0.7c0,0,0.1,0,0.1,0C44.2,1.2,44,1,43.7,0.7v0
					C43.7,1.7,45.2,1.7,45.2,0.7"/>
			</g>
			<path class="st1" d="M43,68c0,0-2.1,9.7-5,15C35.1,88.3,39.3,77.1,43,68z"/>
			<path class="st1" d="M46.2,68c0,0,2.1,9.7,5,15C54.1,88.3,49.9,77.1,46.2,68z"/>
			<path class="st1" d="M58.9,66c0,0,10.1,3.1,16.2-0.7C81.1,61.6,75.8,73.6,58.9,66z"/>
			<path class="st1" d="M30.2,66c0,0-10.1,3.1-16.2-0.7C8,61.6,13.3,73.6,30.2,66z"/>
			<path class="st1" d="M80.1,88.3c0,0-8.2,19.7-19.8,29.2C48.8,126.8,74,112.7,80.1,88.3z"/>
			<path class="st1" d="M8.6,88.3c0,0,8.2,19.7,19.8,29.2C40,126.8,14.8,112.7,8.6,88.3z"/>
		</g>
		<path class="st0" d="M132.8,68c0,0-2.1,9.7-4.9,15C125,88.2,129.1,77.1,132.8,68z"/>
		<path class="st0" d="M135.9,68c0,0,2.1,9.7,4.9,15C143.7,88.2,139.5,77.1,135.9,68z"/>
		<path class="st0" d="M148.4,66c0,0,9.9,3.1,15.9-0.7C170.3,61.6,165,73.6,148.4,66z"/>
		<path class="st0" d="M120.2,66c0,0-9.9,3.1-15.9-0.7C98.3,61.6,103.6,73.6,120.2,66z"/>
		<path class="st0" d="M169.3,88.2c0,0-8.1,19.7-19.5,29.2C138.5,126.8,163.2,112.7,169.3,88.2z"/>
		<path class="st0" d="M98.9,88.2c0,0,8.1,19.7,19.5,29.2C129.8,126.8,105,112.7,98.9,88.2z"/>
	</g>
</g>
</svg>
