<?xml version="1.0" encoding="utf-8"?>
<!-- Generator: Adobe Illustrator 21.1.0, SVG Export Plug-In . SVG Version: 6.00 Build 0)  -->
<svg version="1.1" id="Слой_1" xmlns="http://www.w3.org/2000/svg" xmlns:xlink="http://www.w3.org/1999/xlink" x="0px" y="0px"
	 viewBox="0 0 178 128" style="enable-background:new 0 0 178 128;" xml:space="preserve">
<style type="text/css">
	.st0{fill:#000105;}
	.st1{fill:#73AD59;}
	.st2{fill:#FFFFFF;}
</style>
<g id="Layer_3">
</g>
<g id="buttocks_1_">
	<path class="st0" d="M0.5,92.4"/>
	<path class="st0" d="M1.1,96"/>
</g>
<polygon class="st1" points="44.7,115.3 41.5,110.1 38.8,103.7 37.7,99.4 37.7,95.7 39.6,92.7 42.3,91.4 44.6,90.2 46.8,91.1 
	49.2,91.5 51.3,92.7 52.8,96.1 52.2,100.5 50.6,106 48.4,110.5 "/>
<g id="intimate_6_">
	<path class="st0" d="M82.1,127.6c9.2-21,9.2-45.1,1.8-66.8c-1.7-4.9-4-9.3-6-14c-4.3-10.2-6.1-21.7-2.9-32.6
		c1.4-4.7,3.6-9.6,6.9-13.1c-0.3-0.4-0.7-0.7-1-1.1c-5.7,8.1-14.2,11-23.3,9.1c-4.2-0.9-8.5-2.5-12.1-4.9c-0.2-0.1-0.5-0.2-0.7,0
		c-7.8,6.3-17.1,8-26,3.7c-3.7-1.8-7.4-4.4-10.3-7.7c-0.3,0.4-0.7,0.7-1,1.1c9.6,10,10.2,27.2,6.1,40c-1.9,5.9-5,11.3-7.2,17.1
		c-3.2,8.5-5.2,17.6-6,26.8c-1.2,14.7,1.1,29.3,6.9,42.5c0.1,0.2,0.4,0.4,0.6,0.4c21.4-0.1,42.8-0.1,64.3-0.2c3.1,0,6.1,0,9.2,0
		c0.9,0,0.9-1.5,0-1.5c-21.7,0.1-43.4,0.1-65,0.2c-2,0-3.9,0-5.9,0c-0.5,0-2,0.3-2.5,0c0.1,0-0.7-2.6-0.8-2.8
		c-0.7-1.9-1.4-3.8-2-5.7c-1.1-3.6-2-7.2-2.6-10.9c-1.1-6.3-1.4-12.8-1-19.2c0.5-9.8,2.6-19.5,6-28.6c2-5.5,4.9-10.6,6.9-16.1
		c4.7-13.7,4.3-32.1-6-42.9C7.9-0.3,7,0.7,7.6,1.5c6.6,7.6,17,12.2,26.5,10.2c1.8-0.4,3.5-1,5.1-1.8c0.9-0.4,1.9-1,2.7-1.5
		c0.5-0.3,1.1-0.7,1.6-1.1c0.2-0.2,1.5-1.6,1.3-1.5c0.6-0.1,2.2,1.3,2.8,1.6c4.6,2.3,9.5,3.9,14.5,4.1c7.9,0.4,15-3.3,19.8-10.2
		c0.5-0.8-0.3-1.8-1-1.1c-8.3,8.7-10.3,23.4-8.1,35.1c1.4,7.4,4.7,13.6,7.5,20.3c3.3,7.9,5.6,16.4,6.7,25
		c2.1,15.8,0.1,31.9-6.2,46.3C80.5,127.8,81.7,128.5,82.1,127.6"/>
	<path class="st0" d="M45.9,70.8c0,0.5-0.4,0.9-0.9,0.9c-0.5,0-0.9-0.4-0.9-0.9c0-0.5,0.4-0.9,0.9-0.9C45.5,70,45.9,70.3,45.9,70.8"
		/>
	<path class="st0" d="M45.7,126.6v-7.8c0-1-0.2-2.2,0-3.2c-0.2,0.9,0.2,0,0.5-0.5c3-4.2,6-9.2,6.8-14.6c0.8-5.5-2.9-11.6-8.5-11.2
		c-6,0.5-8.2,6.8-7.1,12.4c1,5,3.5,9.9,6.2,14c1.5,2.2,1.7,0,1.2-0.8c-3.8-5.7-11.5-20.9-1.1-23.8c3-0.9,6.8,1.6,7.8,4.8
		c0.8,2.6,0.2,5.5-0.7,7.9c-0.9,2.5-2.1,4.9-3.5,7.1c-0.8,1.3-2,2.5-2.6,3.9c-0.6,1.2-0.3,2.8-0.3,4.1v7.5
		C44.3,127.6,45.7,127.6,45.7,126.6"/>
	<path class="st0" d="M49.6,92.1c2.5-2.3,6.8-3.3,9.6-0.9c1.9,1.7,1.8,4.5,0.7,6.7h1.2c-0.5-0.8,0.6-3,0.9-3.6
		c0.4-0.8-0.9-1.5-1.2-0.7c-0.6,1.3-1.7,3.6-0.9,5c0.3,0.4,1,0.5,1.2,0c1.5-2.9,1.4-6.7-1.4-8.7c-3.4-2.5-8.1-1.4-11.1,1.3
		C48,91.7,48.9,92.7,49.6,92.1"/>
	<path class="st0" d="M40.7,91.1c-3-2.7-7.6-3.7-11.1-1.3c-2.8,2.1-2.9,5.8-1.4,8.7c0.2,0.5,0.9,0.4,1.2,0c0.9-1.4-0.3-3.7-0.9-5
		c-0.4-0.8-1.6-0.1-1.2,0.7c0.3,0.6,1.4,2.8,0.9,3.6h1.2c-1.1-2.1-1.3-5,0.7-6.7c2.8-2.5,7.1-1.4,9.6,0.9
		C40.4,92.7,41.4,91.7,40.7,91.1"/>
</g>
<g id="buttocks_2_">
	<path class="st0" d="M89.3,92.4"/>
	<path class="st0" d="M89.9,96"/>
</g>
<polygon class="st2" points="133.5,115.3 130.4,110.1 127.6,103.7 126.6,99.4 126.6,95.7 128.4,92.7 131.2,91.4 133.4,90.2 
	135.7,91.1 138.1,91.5 140.1,92.7 141.6,96.1 141,100.5 139.5,106 137.2,110.5 "/>
<g id="intimate_1_">
	<path class="st2" d="M171,127.6c9.2-21,9.2-45.1,1.8-66.8c-1.7-4.9-4-9.3-6-14c-4.3-10.2-6.1-21.7-2.9-32.6
		c1.4-4.7,3.6-9.6,6.9-13.1c-0.3-0.4-0.7-0.7-1-1.1c-5.7,8.1-14.2,11-23.3,9.1c-4.2-0.9-8.5-2.5-12.1-4.9c-0.2-0.1-0.5-0.2-0.7,0
		c-7.8,6.3-17.1,8-26,3.7c-3.7-1.8-7.4-4.4-10.3-7.7c-0.3,0.4-0.7,0.7-1,1.1c9.6,10,10.2,27.2,6.1,40c-1.9,5.9-5,11.3-7.2,17.1
		c-3.2,8.5-5.2,17.6-6,26.8c-1.2,14.7,1.1,29.3,6.9,42.5c0.1,0.2,0.4,0.4,0.6,0.4c21.4-0.1,42.8-0.1,64.3-0.2c3.1,0,6.1,0,9.2,0
		c0.9,0,0.9-1.5,0-1.5c-21.7,0.1-43.4,0.1-65,0.2c-2,0-3.9,0-5.9,0c-0.5,0-2,0.3-2.5,0c0.1,0-0.7-2.6-0.8-2.8
		c-0.7-1.9-1.4-3.8-2-5.7c-1.1-3.6-2-7.2-2.6-10.9c-1.1-6.3-1.4-12.8-1-19.2c0.5-9.8,2.6-19.5,6-28.6c2-5.5,4.9-10.6,6.9-16.1
		c4.7-13.7,4.3-32.1-6-42.9c-0.7-0.7-1.6,0.4-1,1.1c6.6,7.6,17,12.2,26.5,10.2c1.8-0.4,3.5-1,5.1-1.8c0.9-0.4,1.9-1,2.7-1.5
		c0.5-0.3,1.1-0.7,1.6-1.1c0.2-0.2,1.5-1.6,1.3-1.5c0.6-0.1,2.2,1.3,2.8,1.6c4.6,2.3,9.5,3.9,14.5,4.1c7.9,0.4,15-3.3,19.8-10.2
		c0.5-0.8-0.3-1.8-1-1.1c-8.3,8.7-10.3,23.4-8.1,35.1c1.4,7.4,4.7,13.6,7.5,20.3c3.3,7.9,5.6,16.4,6.7,25
		c2.1,15.8,0.1,31.9-6.2,46.3C169.4,127.8,170.6,128.5,171,127.6"/>
	<path class="st2" d="M134.7,70.8c0,0.5-0.4,0.9-0.9,0.9c-0.5,0-0.9-0.4-0.9-0.9c0-0.5,0.4-0.9,0.9-0.9
		C134.3,70,134.7,70.3,134.7,70.8"/>
	<path class="st2" d="M134.5,126.6v-7.8c0-1-0.2-2.2,0-3.2c-0.2,0.9,0.2,0,0.5-0.5c3-4.2,6-9.2,6.8-14.6c0.8-5.5-2.9-11.6-8.5-11.2
		c-6,0.5-8.2,6.8-7.1,12.4c1,5,3.5,9.9,6.2,14c1.5,2.2,1.7,0,1.2-0.8c-3.8-5.7-11.5-20.9-1.1-23.8c3-0.9,6.8,1.6,7.8,4.8
		c0.8,2.6,0.2,5.5-0.7,7.9c-0.9,2.5-2.1,4.9-3.5,7.1c-0.8,1.3-2,2.5-2.6,3.9c-0.6,1.2-0.3,2.8-0.3,4.1v7.5
		C133.1,127.6,134.5,127.6,134.5,126.6"/>
	<path class="st2" d="M138.4,92.1c2.5-2.3,6.8-3.3,9.6-0.9c1.9,1.7,1.8,4.5,0.7,6.7h1.2c-0.5-0.8,0.6-3,0.9-3.6
		c0.4-0.8-0.9-1.5-1.2-0.7c-0.6,1.3-1.7,3.6-0.9,5c0.3,0.4,1,0.5,1.2,0c1.5-2.9,1.4-6.7-1.4-8.7c-3.4-2.5-8.1-1.4-11.1,1.3
		C136.8,91.7,137.8,92.7,138.4,92.1"/>
	<path class="st2" d="M129.5,91.1c-3-2.7-7.6-3.7-11.1-1.3c-2.8,2.1-2.9,5.8-1.4,8.7c0.2,0.5,0.9,0.4,1.2,0c0.9-1.4-0.3-3.7-0.9-5
		c-0.4-0.8-1.6-0.1-1.2,0.7c0.3,0.6,1.4,2.8,0.9,3.6h1.2c-1.1-2.1-1.3-5,0.7-6.7c2.8-2.5,7.1-1.4,9.6,0.9
		C129.2,92.7,130.2,91.7,129.5,91.1"/>
</g>
</svg>
